<svg width="275" height="50" viewBox="0 0 275 50" fill="none" xmlns="http://www.w3.org/2000/svg">
<path d="M74.782 10.748V29H70.336V18.054L66.254 29H62.666L58.558 18.028V29H54.112V10.748H59.364L64.486 23.384L69.556 10.748H74.782ZM93.6312 10.748L87.3132 22.968V29H82.8672V22.968L76.5492 10.748H81.5932L85.1292 18.392L88.6392 10.748H93.6312Z" fill="#000A2E"/>
<path d="M112.557 10.748L106.083 29H100.519L94.0445 10.748H98.7765L103.301 24.528L107.851 10.748H112.557ZM125.777 25.776H118.965L117.873 29H113.219L119.823 10.748H124.971L131.575 29H126.869L125.777 25.776ZM124.633 22.344L122.371 15.662L120.135 22.344H124.633ZM132.831 19.848C132.831 18.0453 133.221 16.442 134.001 15.038C134.781 13.6167 135.864 12.516 137.251 11.736C138.655 10.9387 140.241 10.54 142.009 10.54C144.175 10.54 146.03 11.112 147.573 12.256C149.115 13.4 150.147 14.96 150.667 16.936H145.779C145.415 16.1733 144.895 15.5927 144.219 15.194C143.56 14.7953 142.806 14.596 141.957 14.596C140.587 14.596 139.478 15.0727 138.629 16.026C137.779 16.9793 137.355 18.2533 137.355 19.848C137.355 21.4427 137.779 22.7167 138.629 23.67C139.478 24.6233 140.587 25.1 141.957 25.1C142.806 25.1 143.56 24.9007 144.219 24.502C144.895 24.1033 145.415 23.5227 145.779 22.76H150.667C150.147 24.736 149.115 26.296 147.573 27.44C146.03 28.5667 144.175 29.13 142.009 29.13C140.241 29.13 138.655 28.74 137.251 27.96C135.864 27.1627 134.781 26.062 134.001 24.658C133.221 23.254 132.831 21.6507 132.831 19.848ZM152.635 19.848C152.635 18.0453 153.025 16.442 153.805 15.038C154.585 13.6167 155.669 12.516 157.055 11.736C158.459 10.9387 160.045 10.54 161.813 10.54C163.98 10.54 165.835 11.112 167.377 12.256C168.92 13.4 169.951 14.96 170.471 16.936H165.583C165.219 16.1733 164.699 15.5927 164.023 15.194C163.365 14.7953 162.611 14.596 161.761 14.596C160.392 14.596 159.283 15.0727 158.433 16.026C157.584 16.9793 157.159 18.2533 157.159 19.848C157.159 21.4427 157.584 22.7167 158.433 23.67C159.283 24.6233 160.392 25.1 161.761 25.1C162.611 25.1 163.365 24.9007 164.023 24.502C164.699 24.1033 165.219 23.5227 165.583 22.76H170.471C169.951 24.736 168.92 26.296 167.377 27.44C165.835 28.5667 163.98 29.13 161.813 29.13C160.045 29.13 158.459 28.74 157.055 27.96C155.669 27.1627 154.585 26.062 153.805 24.658C153.025 23.254 152.635 21.6507 152.635 19.848ZM177.64 10.748V29H173.194V10.748H177.64ZM197.19 29H192.744L185.308 17.742V29H180.862V10.748H185.308L192.744 22.058V10.748H197.19V29ZM204.859 14.31V18.002H210.813V21.434H204.859V25.438H211.593V29H200.413V10.748H211.593V14.31H204.859Z" fill="#0015FF"/>
<path d="M56.756 44.098C56.1027 44.098 55.5147 43.986 54.992 43.762C54.4693 43.5287 54.0587 43.202 53.76 42.782C53.4613 42.362 53.312 41.872 53.312 41.312H55.02C55.0573 41.732 55.2207 42.0773 55.51 42.348C55.8087 42.6187 56.224 42.754 56.756 42.754C57.3067 42.754 57.736 42.6233 58.044 42.362C58.352 42.0913 58.506 41.746 58.506 41.326C58.506 40.9993 58.408 40.7333 58.212 40.528C58.0253 40.3227 57.7873 40.164 57.498 40.052C57.218 39.94 56.826 39.8187 56.322 39.688C55.6873 39.52 55.1693 39.352 54.768 39.184C54.376 39.0067 54.04 38.736 53.76 38.372C53.48 38.008 53.34 37.5227 53.34 36.916C53.34 36.356 53.48 35.866 53.76 35.446C54.04 35.026 54.432 34.704 54.936 34.48C55.44 34.256 56.0233 34.144 56.686 34.144C57.6287 34.144 58.3987 34.382 58.996 34.858C59.6027 35.3247 59.9387 35.9687 60.004 36.79H58.24C58.212 36.4353 58.044 36.132 57.736 35.88C57.428 35.628 57.022 35.502 56.518 35.502C56.0607 35.502 55.6873 35.6187 55.398 35.852C55.1087 36.0853 54.964 36.4213 54.964 36.86C54.964 37.1587 55.0527 37.406 55.23 37.602C55.4167 37.7887 55.65 37.938 55.93 38.05C56.21 38.162 56.5927 38.2833 57.078 38.414C57.722 38.5913 58.2447 38.7687 58.646 38.946C59.0567 39.1233 59.402 39.3987 59.682 39.772C59.9713 40.136 60.116 40.626 60.116 41.242C60.116 41.7367 59.9807 42.2033 59.71 42.642C59.4487 43.0807 59.0613 43.4353 58.548 43.706C58.044 43.9673 57.4467 44.098 56.756 44.098ZM63.5812 34.27V40.472C63.5812 41.2093 63.7726 41.7647 64.1552 42.138C64.5472 42.5113 65.0886 42.698 65.7792 42.698C66.4792 42.698 67.0206 42.5113 67.4032 42.138C67.7952 41.7647 67.9912 41.2093 67.9912 40.472V34.27H69.5872V40.444C69.5872 41.2373 69.4146 41.9093 69.0692 42.46C68.7239 43.0107 68.2619 43.4213 67.6832 43.692C67.1046 43.9627 66.4652 44.098 65.7652 44.098C65.0652 44.098 64.4259 43.9627 63.8472 43.692C63.2779 43.4213 62.8252 43.0107 62.4892 42.46C62.1532 41.9093 61.9852 41.2373 61.9852 40.444V34.27H63.5812ZM77.5312 42.012H73.4572L72.7572 44H71.0912L74.5772 34.256H76.4252L79.9112 44H78.2312L77.5312 42.012ZM77.0832 40.71L75.5012 36.188L73.9052 40.71H77.0832ZM88.2697 44.098C87.6163 44.098 87.0283 43.986 86.5057 43.762C85.983 43.5287 85.5723 43.202 85.2737 42.782C84.975 42.362 84.8257 41.872 84.8257 41.312H86.5337C86.571 41.732 86.7343 42.0773 87.0237 42.348C87.3223 42.6187 87.7377 42.754 88.2697 42.754C88.8203 42.754 89.2497 42.6233 89.5577 42.362C89.8657 42.0913 90.0197 41.746 90.0197 41.326C90.0197 40.9993 89.9217 40.7333 89.7257 40.528C89.539 40.3227 89.301 40.164 89.0117 40.052C88.7317 39.94 88.3397 39.8187 87.8357 39.688C87.201 39.52 86.683 39.352 86.2817 39.184C85.8897 39.0067 85.5537 38.736 85.2737 38.372C84.9937 38.008 84.8537 37.5227 84.8537 36.916C84.8537 36.356 84.9937 35.866 85.2737 35.446C85.5537 35.026 85.9457 34.704 86.4497 34.48C86.9537 34.256 87.537 34.144 88.1997 34.144C89.1423 34.144 89.9123 34.382 90.5097 34.858C91.1163 35.3247 91.4523 35.9687 91.5177 36.79H89.7537C89.7257 36.4353 89.5577 36.132 89.2497 35.88C88.9417 35.628 88.5357 35.502 88.0317 35.502C87.5743 35.502 87.201 35.6187 86.9117 35.852C86.6223 36.0853 86.4777 36.4213 86.4777 36.86C86.4777 37.1587 86.5663 37.406 86.7437 37.602C86.9303 37.7887 87.1637 37.938 87.4437 38.05C87.7237 38.162 88.1063 38.2833 88.5917 38.414C89.2357 38.5913 89.7583 38.7687 90.1597 38.946C90.5703 39.1233 90.9157 39.3987 91.1957 39.772C91.485 40.136 91.6297 40.626 91.6297 41.242C91.6297 41.7367 91.4943 42.2033 91.2237 42.642C90.9623 43.0807 90.575 43.4353 90.0617 43.706C89.5577 43.9673 88.9603 44.098 88.2697 44.098ZM99.3789 42.012H95.3049L94.6049 44H92.9389L96.4249 34.256H98.2729L101.759 44H100.079L99.3789 42.012ZM98.9309 40.71L97.3489 36.188L95.7529 40.71H98.9309ZM104.857 34.27V40.472C104.857 41.2093 105.048 41.7647 105.431 42.138C105.823 42.5113 106.364 42.698 107.055 42.698C107.755 42.698 108.296 42.5113 108.679 42.138C109.071 41.7647 109.267 41.2093 109.267 40.472V34.27H110.863V40.444C110.863 41.2373 110.69 41.9093 110.345 42.46C109.999 43.0107 109.537 43.4213 108.959 43.692C108.38 43.9627 107.741 44.098 107.041 44.098C106.341 44.098 105.701 43.9627 105.123 43.692C104.553 43.4213 104.101 43.0107 103.765 42.46C103.429 41.9093 103.261 41.2373 103.261 40.444V34.27H104.857ZM108.497 32.184L105.403 33.71V32.534L108.497 30.826V32.184ZM116.119 34.27C117.155 34.27 118.06 34.4707 118.835 34.872C119.619 35.264 120.221 35.8333 120.641 36.58C121.07 37.3173 121.285 38.1807 121.285 39.17C121.285 40.1593 121.07 41.018 120.641 41.746C120.221 42.474 119.619 43.034 118.835 43.426C118.06 43.8087 117.155 44 116.119 44H112.941V34.27H116.119ZM116.119 42.698C117.257 42.698 118.13 42.39 118.737 41.774C119.343 41.158 119.647 40.29 119.647 39.17C119.647 38.0407 119.343 37.1587 118.737 36.524C118.13 35.8893 117.257 35.572 116.119 35.572H114.537V42.698H116.119ZM124.462 35.558V38.414H127.822V39.716H124.462V42.698H128.242V44H122.866V34.256H128.242V35.558H124.462ZM135.441 35.558V38.414H138.801V39.716H135.441V42.698H139.221V44H133.845V34.256H139.221V35.558H135.441ZM151.435 34.27V44H149.839V37.336L146.871 44H145.765L142.783 37.336V44H141.187V34.27H142.909L146.325 41.9L149.727 34.27H151.435ZM163.973 37.168C163.973 37.6627 163.856 38.1293 163.623 38.568C163.39 39.0067 163.016 39.366 162.503 39.646C161.99 39.9167 161.332 40.052 160.529 40.052H158.765V44H157.169V34.27H160.529C161.276 34.27 161.906 34.4007 162.419 34.662C162.942 34.914 163.329 35.2593 163.581 35.698C163.842 36.1367 163.973 36.6267 163.973 37.168ZM160.529 38.75C161.136 38.75 161.588 38.6147 161.887 38.344C162.186 38.064 162.335 37.672 162.335 37.168C162.335 36.104 161.733 35.572 160.529 35.572H158.765V38.75H160.529ZM170.549 44L168.309 40.108H167.091V44H165.495V34.27H168.855C169.602 34.27 170.232 34.4007 170.745 34.662C171.268 34.9233 171.655 35.2733 171.907 35.712C172.169 36.1507 172.299 36.6407 172.299 37.182C172.299 37.8167 172.113 38.3953 171.739 38.918C171.375 39.4313 170.811 39.7813 170.045 39.968L172.453 44H170.549ZM167.091 38.834H168.855C169.453 38.834 169.901 38.6847 170.199 38.386C170.507 38.0873 170.661 37.686 170.661 37.182C170.661 36.678 170.512 36.286 170.213 36.006C169.915 35.7167 169.462 35.572 168.855 35.572H167.091V38.834ZM175.937 34.27V44H174.341V34.27H175.937ZM188.28 34.27V44H186.684V37.336L183.716 44H182.61L179.628 37.336V44H178.032V34.27H179.754L183.17 41.9L186.572 34.27H188.28ZM191.974 35.558V38.414H195.334V39.716H191.974V42.698H195.754V44H190.378V34.256H195.754V35.558H191.974ZM199.316 34.27V44H197.72V34.27H199.316ZM206.465 44L204.225 40.108H203.007V44H201.411V34.27H204.771C205.518 34.27 206.148 34.4007 206.661 34.662C207.184 34.9233 207.571 35.2733 207.823 35.712C208.085 36.1507 208.215 36.6407 208.215 37.182C208.215 37.8167 208.029 38.3953 207.655 38.918C207.291 39.4313 206.727 39.7813 205.961 39.968L208.369 44H206.465ZM203.007 38.834H204.771C205.369 38.834 205.817 38.6847 206.115 38.386C206.423 38.0873 206.577 37.686 206.577 37.182C206.577 36.678 206.428 36.286 206.129 36.006C205.831 35.7167 205.378 35.572 204.771 35.572H203.007V38.834ZM214.695 44.098C213.79 44.098 212.954 43.888 212.189 43.468C211.433 43.0387 210.831 42.446 210.383 41.69C209.944 40.9247 209.725 40.066 209.725 39.114C209.725 38.162 209.944 37.308 210.383 36.552C210.831 35.796 211.433 35.208 212.189 34.788C212.954 34.3587 213.79 34.144 214.695 34.144C215.61 34.144 216.445 34.3587 217.201 34.788C217.966 35.208 218.568 35.796 219.007 36.552C219.446 37.308 219.665 38.162 219.665 39.114C219.665 40.066 219.446 40.9247 219.007 41.69C218.568 42.446 217.966 43.0387 217.201 43.468C216.445 43.888 215.61 44.098 214.695 44.098ZM214.695 42.712C215.339 42.712 215.913 42.5673 216.417 42.278C216.921 41.9793 217.313 41.5593 217.593 41.018C217.882 40.4673 218.027 39.8327 218.027 39.114C218.027 38.3953 217.882 37.7653 217.593 37.224C217.313 36.6827 216.921 36.2673 216.417 35.978C215.913 35.6887 215.339 35.544 214.695 35.544C214.051 35.544 213.477 35.6887 212.973 35.978C212.469 36.2673 212.072 36.6827 211.783 37.224C211.503 37.7653 211.363 38.3953 211.363 39.114C211.363 39.8327 211.503 40.4673 211.783 41.018C212.072 41.5593 212.469 41.9793 212.973 42.278C213.477 42.5673 214.051 42.712 214.695 42.712ZM226.468 42.712H229.758V44H224.872V34.27H226.468V42.712ZM232.675 34.27V40.472C232.675 41.2093 232.866 41.7647 233.249 42.138C233.641 42.5113 234.182 42.698 234.873 42.698C235.573 42.698 236.114 42.5113 236.497 42.138C236.889 41.7647 237.085 41.2093 237.085 40.472V34.27H238.681V40.444C238.681 41.2373 238.508 41.9093 238.163 42.46C237.818 43.0107 237.356 43.4213 236.777 43.692C236.198 43.9627 235.559 44.098 234.859 44.098C234.159 44.098 233.52 43.9627 232.941 43.692C232.372 43.4213 231.919 43.0107 231.583 42.46C231.247 41.9093 231.079 41.2373 231.079 40.444V34.27H232.675ZM247.801 37.07C247.549 36.5847 247.199 36.2207 246.751 35.978C246.303 35.726 245.785 35.6 245.197 35.6C244.553 35.6 243.979 35.7447 243.475 36.034C242.971 36.3233 242.574 36.734 242.285 37.266C242.005 37.798 241.865 38.414 241.865 39.114C241.865 39.814 242.005 40.4347 242.285 40.976C242.574 41.508 242.971 41.9187 243.475 42.208C243.979 42.4973 244.553 42.642 245.197 42.642C246.065 42.642 246.77 42.3993 247.311 41.914C247.852 41.4287 248.184 40.7707 248.305 39.94H244.651V38.666H250.013V39.912C249.91 40.668 249.64 41.3633 249.201 41.998C248.772 42.6327 248.207 43.1413 247.507 43.524C246.816 43.8973 246.046 44.084 245.197 44.084C244.282 44.084 243.447 43.874 242.691 43.454C241.935 43.0247 241.333 42.432 240.885 41.676C240.446 40.92 240.227 40.066 240.227 39.114C240.227 38.162 240.446 37.308 240.885 36.552C241.333 35.796 241.935 35.208 242.691 34.788C243.456 34.3587 244.292 34.144 245.197 34.144C246.233 34.144 247.152 34.4007 247.955 34.914C248.767 35.418 249.355 36.1367 249.719 37.07H247.801ZM257.453 42.012H253.379L252.679 44H251.013L254.499 34.256H256.347L259.833 44H258.153L257.453 42.012ZM257.005 40.71L255.423 36.188L253.827 40.71H257.005ZM266.403 44L264.163 40.108H262.945V44H261.349V34.27H264.709C265.455 34.27 266.085 34.4007 266.599 34.662C267.121 34.9233 267.509 35.2733 267.761 35.712C268.022 36.1507 268.153 36.6407 268.153 37.182C268.153 37.8167 267.966 38.3953 267.593 38.918C267.229 39.4313 266.664 39.7813 265.899 39.968L268.307 44H266.403ZM262.945 38.834H264.709C265.306 38.834 265.754 38.6847 266.053 38.386C266.361 38.0873 266.515 37.686 266.515 37.182C266.515 36.678 266.365 36.286 266.067 36.006C265.768 35.7167 265.315 35.572 264.709 35.572H262.945V38.834ZM272.197 34.27L272.015 41.06H270.685L270.503 34.27H272.197ZM271.399 44.098C271.109 44.098 270.867 44 270.671 43.804C270.475 43.608 270.377 43.3653 270.377 43.076C270.377 42.7867 270.475 42.544 270.671 42.348C270.867 42.152 271.109 42.054 271.399 42.054C271.679 42.054 271.917 42.152 272.113 42.348C272.309 42.544 272.407 42.7867 272.407 43.076C272.407 43.3653 272.309 43.608 272.113 43.804C271.917 44 271.679 44.098 271.399 44.098Z" fill="#100E3D"/>
<rect x="16.5" y="7" width="10" height="43" rx="5" fill="#0015FF"/>
<rect x="43" y="23.5" width="10" height="43" rx="5" transform="rotate(90 43 23.5)" fill="#0015FF"/>
<circle cx="34" cy="14.5" r="3.5" fill="#0015FF"/>
</svg>
